<?xml version="1.0" encoding="utf-8"?>
<!-- Generator: Adobe Illustrator 25.4.1, SVG Export Plug-In . SVG Version: 6.00 Build 0)  -->
<svg version="1.1" id="Lager_1" xmlns="http://www.w3.org/2000/svg" xmlns:xlink="http://www.w3.org/1999/xlink" x="0px" y="0px"
	 viewBox="0 0 188.816 50" style="enable-background:new 0 0 188.816 50;" xml:space="preserve">
<g>
	<g>
		<g>
			<g>
				<path d="M60.361,16.141V7.034h1.651v8.917c0,2.997,1.1,4.137,3.491,4.137c2.277,0,3.662-0.91,3.662-4.402V7.034h1.556v8.898
					c0,3.472-1.689,5.559-5.275,5.559C62.182,21.493,60.361,19.632,60.361,16.141z"/>
				<path d="M73.29,11.872h1.518l-0.038,1.385c0.456-0.834,1.385-1.613,2.79-1.613c1.556,0,2.885,0.967,2.885,3.263v6.414h-1.518
					v-6.509c0-1.138-0.512-1.783-1.651-1.783c-1.366,0-2.467,0.682-2.467,2.733v5.559H73.29C73.29,21.322,73.29,11.872,73.29,11.872
					z"/>
				<path d="M82.737,7.034h1.613v1.802h-1.613V7.034z M82.773,11.872h1.537v9.449h-1.537V11.872z"/>
				<path d="M85.707,11.872h1.632l2.562,7.817l2.505-7.817h1.499l-3.244,9.449h-1.634L85.707,11.872z"/>
				<path d="M98.738,20.221c1.499,0,2.277-0.834,2.676-2.315l1.328,0.266c-0.494,1.86-1.594,3.339-4.023,3.339
					c-2.714,0-4.326-2.163-4.326-4.896c0-2.847,1.518-4.972,4.193-4.972c2.41,0,4.118,1.537,4.232,5.18h-6.906
					C95.986,18.817,96.783,20.221,98.738,20.221z M101.243,15.668c-0.228-1.954-1.081-2.714-2.657-2.714
					c-1.594,0-2.429,1.005-2.638,2.714H101.243z"/>
				<path d="M104.605,11.872h1.518l-0.038,1.48c0.399-0.929,1.062-1.708,2.22-1.708c0.741,0,1.233,0.209,1.575,0.532l-0.626,1.309
					h-0.038c-0.266-0.342-0.608-0.532-1.157-0.532c-1.024,0-1.935,0.929-1.935,3.187v5.18h-1.518v-9.449h-0.001V11.872z"/>
				<path d="M110.391,18.608l1.404-0.285c0.266,1.119,0.72,1.878,2.429,1.878c1.157,0,2.068-0.513,2.068-1.575
					c0-1.119-0.853-1.214-2.619-1.65c-1.746-0.437-2.997-1.024-2.997-2.676c0-1.784,1.48-2.657,3.168-2.657
					c1.974,0,2.904,0.627,3.491,2.03l-1.271,0.588c-0.361-0.967-0.948-1.328-2.163-1.328c-1.29,0-1.784,0.55-1.784,1.271
					c0,0.948,0.682,1.062,2.334,1.461c1.783,0.437,3.282,0.893,3.282,2.959c0,1.67-1.404,2.885-3.396,2.885
					C112.004,21.512,110.695,20.487,110.391,18.608z"/>
				<path d="M119.427,7.034h1.613v1.802h-1.613V7.034z M119.465,11.872h1.537v9.449h-1.537V11.872z"/>
				<path d="M122.408,13.106v-1.233h1.517V9.235c0.494-0.418,1.138-1.138,1.442-1.594h0.057v4.232h1.708v1.233h-1.708v6.148
					c0,0.758,0.266,0.929,0.834,0.929c0.399,0,0.701-0.133,0.929-0.304h0.038l-0.228,1.328c-0.266,0.133-0.682,0.304-1.328,0.304
					c-0.55,0-1.024-0.152-1.29-0.456c-0.304-0.304-0.456-1.024-0.456-1.726v-6.224h-1.515V13.106z"/>
				<path d="M132.28,20.221c1.499,0,2.277-0.834,2.676-2.315l1.328,0.266c-0.494,1.86-1.594,3.339-4.023,3.339
					c-2.714,0-4.326-2.163-4.326-4.896c0-2.847,1.517-4.972,4.193-4.972c2.41,0,4.117,1.537,4.231,5.18h-6.906
					C129.529,18.817,130.326,20.221,132.28,20.221z M134.784,15.668c-0.228-1.954-1.081-2.714-2.657-2.714
					c-1.594,0-2.429,1.005-2.638,2.714H134.784z"/>
				<path d="M136.948,13.106v-1.233h1.517V9.235c0.494-0.418,1.138-1.138,1.442-1.594h0.057v4.232h1.708v1.233h-1.708v6.148
					c0,0.758,0.266,0.929,0.834,0.929c0.399,0,0.701-0.133,0.929-0.304h0.038l-0.228,1.328c-0.266,0.133-0.682,0.304-1.328,0.304
					c-0.55,0-1.024-0.152-1.29-0.456c-0.304-0.304-0.456-1.024-0.456-1.726v-6.224h-1.515V13.106z"/>
				<path d="M142.691,18.608l1.404-0.285c0.266,1.119,0.72,1.878,2.429,1.878c1.157,0,2.068-0.513,2.068-1.575
					c0-1.119-0.853-1.214-2.619-1.65c-1.746-0.437-2.997-1.024-2.997-2.676c0-1.784,1.48-2.657,3.168-2.657
					c1.973,0,2.904,0.627,3.491,2.03l-1.271,0.588c-0.361-0.967-0.948-1.328-2.163-1.328c-1.29,0-1.783,0.55-1.783,1.271
					c0,0.948,0.682,1.062,2.334,1.461c1.784,0.437,3.282,0.893,3.282,2.959c0,1.67-1.404,2.885-3.396,2.885
					C144.304,21.512,142.995,20.487,142.691,18.608z"/>
				<path d="M151.475,15.611h4.06v1.48h-4.06V15.611z"/>
			</g>
			<g>
				<path d="M161.692,16.559c0-2.733,1.575-4.915,4.383-4.915c2.828,0,4.364,2.163,4.364,4.953c0,2.752-1.518,4.915-4.383,4.915
					C163.323,21.512,161.692,19.349,161.692,16.559z M168.882,16.616c0-2.011-0.815-3.643-2.809-3.643
					c-1.992,0-2.828,1.537-2.828,3.548c0,2.049,0.815,3.7,2.828,3.7C168.085,20.221,168.882,18.665,168.882,16.616z"/>
				<path d="M171.712,16.559c0-2.904,1.556-4.915,4.232-4.915c2.144,0,3.225,1.081,3.795,2.923l-1.385,0.304
					c-0.399-1.252-0.929-1.897-2.41-1.897c-1.841,0-2.676,1.404-2.676,3.548c0,2.03,0.741,3.7,2.771,3.7
					c1.594,0,2.239-0.967,2.6-2.467l1.385,0.285c-0.532,2.068-1.689,3.472-4.004,3.472
					C173.269,21.512,171.712,19.254,171.712,16.559z"/>
				<path d="M181.596,6.958h1.518v6.243c0.455-0.834,1.271-1.556,2.676-1.556c1.537,0,2.845,0.986,2.845,3.263v6.414h-1.518v-6.509
					c0-1.119-0.456-1.783-1.613-1.783c-1.366,0-2.391,0.682-2.391,2.733v5.559h-1.518V6.958H181.596z"/>
			</g>
		</g>
		<g>
			<path d="M60.361,26.054h1.518v6.243c0.456-0.834,1.271-1.556,2.676-1.556c1.537,0,2.847,0.986,2.847,3.263v6.414h-1.518v-6.509
				c0-1.119-0.456-1.783-1.613-1.783c-1.366,0-2.391,0.682-2.391,2.733v5.559h-1.518V26.054H60.361z"/>
			<path d="M69.121,35.655c0-2.733,1.575-4.915,4.383-4.915c2.828,0,4.364,2.163,4.364,4.953c0,2.752-1.518,4.915-4.383,4.915
				C70.752,40.608,69.121,38.445,69.121,35.655z M76.311,35.712c0-2.011-0.815-3.643-2.809-3.643c-1.992,0-2.828,1.537-2.828,3.548
				c0,2.049,0.815,3.7,2.828,3.7C75.514,39.318,76.311,37.761,76.311,35.712z M71.246,26.889h1.594v1.764h-1.594V26.889z
				 M74.129,26.889h1.594v1.764h-1.594V26.889z"/>
			<path d="M79.347,34.156c0-2.068,1.423-3.415,3.833-3.415c1.442,0,2.619,0.494,3.32,1.347c0.342-0.853,0.796-1.309,1.575-1.309
				c0.532,0,0.815,0.171,1.062,0.456l-0.663,1.214h-0.038c-0.171-0.228-0.323-0.304-0.607-0.304c-0.399,0-0.682,0.437-0.682,0.948
				c0,0.323,0.095,0.513,0.095,1.1c0,2.277-1.594,3.377-3.966,3.377c-0.682,0-1.29-0.114-1.84-0.323
				c-0.607,0.152-0.986,0.418-0.986,0.91c0,0.739,1.024,0.777,2.429,0.777h0.588c1.651,0,2.486,0.076,3.282,0.361
				c1.1,0.399,1.556,1.195,1.556,2.372c0,2.106-1.746,2.959-4.649,2.959c-2.959,0-4.687-0.777-4.687-2.714
				c0-0.872,0.607-1.518,1.214-1.841c-0.72-0.266-1.176-0.758-1.176-1.65c0-0.853,0.682-1.461,1.48-1.727
				C79.765,36.11,79.347,35.256,79.347,34.156z M80.373,41.803c0,1.1,0.872,1.594,3.301,1.594c2.41,0,3.187-0.569,3.187-1.727
				c0-0.532-0.133-0.815-0.701-1.024c-0.607-0.209-1.233-0.228-2.277-0.228H83.37c-0.72,0-1.404,0-2.03-0.076
				C80.771,40.627,80.373,41.119,80.373,41.803z M85.723,34.175c0-1.499-0.872-2.22-2.505-2.22c-1.556,0-2.353,0.701-2.353,2.22
				c0,1.594,0.929,2.182,2.429,2.182C84.832,36.357,85.723,35.769,85.723,34.175z"/>
			<path d="M89.281,37.704l1.404-0.285c0.266,1.119,0.72,1.878,2.429,1.878c1.157,0,2.068-0.513,2.068-1.575
				c0-1.119-0.853-1.214-2.619-1.65c-1.746-0.437-2.997-1.024-2.997-2.676c0-1.784,1.48-2.657,3.168-2.657
				c1.973,0,2.904,0.627,3.491,2.03l-1.271,0.588c-0.361-0.967-0.948-1.328-2.163-1.328c-1.29,0-1.784,0.55-1.784,1.271
				c0,0.948,0.682,1.062,2.334,1.461c1.784,0.437,3.282,0.893,3.282,2.959c0,1.67-1.404,2.885-3.396,2.885
				C90.894,40.608,89.585,39.583,89.281,37.704z"/>
			<path d="M99.864,40.418h-1.518V26.054h1.518v8.993l3.377-4.079h1.689l-3.111,3.719l3.586,5.73h-1.727l-2.828-4.554l-0.986,1.157
				V40.418z"/>
			<path d="M105.63,35.655c0-2.733,1.575-4.915,4.383-4.915c2.828,0,4.364,2.163,4.364,4.953c0,2.752-1.518,4.915-4.383,4.915
				C107.262,40.608,105.63,38.445,105.63,35.655z M112.821,35.712c0-2.011-0.815-3.643-2.809-3.643
				c-1.992,0-2.828,1.537-2.828,3.548c0,2.049,0.815,3.7,2.828,3.7C112.024,39.318,112.821,37.761,112.821,35.712z"/>
			<path d="M116.25,26.054h1.537v14.364h-1.537V26.054z"/>
			<path d="M123.985,39.318c1.499,0,2.277-0.834,2.676-2.315l1.328,0.266c-0.494,1.86-1.594,3.339-4.023,3.339
				c-2.714,0-4.326-2.163-4.326-4.896c0-2.847,1.518-4.972,4.193-4.972c2.41,0,4.118,1.537,4.232,5.18h-6.906
				C121.233,37.913,122.031,39.318,123.985,39.318z M126.49,34.764c-0.228-1.954-1.081-2.714-2.657-2.714
				c-1.594,0-2.429,1.005-2.638,2.714H126.49z"/>
			<path d="M129.853,30.969h1.517l-0.038,1.48c0.399-0.929,1.062-1.708,2.22-1.708c0.739,0,1.233,0.209,1.575,0.532l-0.627,1.309
				h-0.038c-0.266-0.342-0.607-0.532-1.157-0.532c-1.024,0-1.935,0.929-1.935,3.187v5.18h-1.517
				C129.853,40.418,129.853,30.969,129.853,30.969z"/>
			<path d="M141.457,33.985c0-1.328-0.626-1.916-1.84-1.916c-1.252,0-1.897,0.494-2.467,1.67l-1.252-0.663
				c0.701-1.594,2.011-2.334,3.795-2.334c1.537,0,3.282,0.815,3.282,3.358v4.307c0,0.627,0.133,0.893,0.627,0.893
				c0.342,0,0.569-0.095,0.796-0.228h0.038l-0.152,1.252c-0.19,0.095-0.589,0.266-1.005,0.266c-0.948,0-1.537-0.494-1.746-1.423
				c-0.72,0.91-1.689,1.461-2.999,1.461c-1.688,0-3.016-0.777-3.016-2.562c0-2.619,2.904-3.13,5.939-3.244V33.985z M137.035,38.027
				c0,0.834,0.475,1.366,1.746,1.366c1.48,0,2.676-0.834,2.676-2.087v-1.385C139.085,36.016,137.035,36.338,137.035,38.027z
				 M137.738,27.611c0-1.081,0.682-1.973,1.878-1.973c1.1,0,1.878,0.758,1.878,1.973c0,1.043-0.663,1.974-1.878,1.974
				C138.421,29.583,137.738,28.673,137.738,27.611z M140.621,27.611c0-0.739-0.322-1.195-1.005-1.195
				c-0.682,0-0.986,0.399-0.986,1.157c0,0.796,0.304,1.233,0.986,1.233C140.319,28.806,140.621,28.426,140.621,27.611z"/>
			<path d="M145.065,35.75c0-2.942,1.309-5.009,3.89-5.009c1.594,0,2.41,0.646,2.923,1.575v-6.262h1.518v14.364h-1.518l0.038-1.461
				c-0.588,0.967-1.461,1.688-3.016,1.688C146.583,40.646,145.065,38.805,145.065,35.75z M151.915,35.731
				c0-2.467-0.948-3.643-2.809-3.643c-1.821,0-2.486,1.423-2.486,3.662c0,2.581,0.929,3.586,2.505,3.586
				C150.7,39.337,151.915,38.331,151.915,35.731z"/>
			<path d="M159.596,39.318c1.499,0,2.277-0.834,2.676-2.315l1.328,0.266c-0.494,1.86-1.594,3.339-4.023,3.339
				c-2.714,0-4.326-2.163-4.326-4.896c0-2.847,1.517-4.972,4.193-4.972c2.41,0,4.117,1.537,4.231,5.18h-6.906
				C156.844,37.913,157.642,39.318,159.596,39.318z M162.1,34.764c-0.228-1.954-1.081-2.714-2.657-2.714
				c-1.594,0-2.429,1.005-2.638,2.714H162.1z"/>
			<path d="M164.265,32.202v-1.233h1.518v-2.638c0.494-0.418,1.138-1.138,1.442-1.594h0.057v4.232h1.707v1.233h-1.707v6.148
				c0,0.758,0.266,0.929,0.834,0.929c0.399,0,0.701-0.133,0.929-0.304h0.038l-0.228,1.328c-0.266,0.133-0.683,0.304-1.328,0.304
				c-0.55,0-1.024-0.152-1.29-0.456c-0.304-0.304-0.456-1.024-0.456-1.726v-6.224h-1.516V32.202z"/>
		</g>
	</g>
	<g>
		<g>
			<path d="M28.948,25.639c0,0,0,7.414,0,8.327c0,1.505-0.25,2.54-0.936,3.453c-0.687,0.913-1.586,1.254-3.012,1.254
				c-1.426,0-2.326-0.341-3.012-1.254c-0.687-0.913-0.936-1.948-0.936-3.453c0-0.912,0-8.327,0-8.327
				c-7.863-0.17-14.716,0.649-20.768,1.923c0.049,0.486,0.107,0.963,0.175,1.433C2.57,43.536,13.807,50,25,50
				s22.43-6.464,24.541-21.005c0.068-0.469,0.128-0.947,0.176-1.433C43.665,26.288,36.811,25.469,28.948,25.639z"/>
			<path d="M50,5.475V0c-7.691,3.803-14.772,8.665-21.052,14.396v1.784C35.417,11.746,42.483,8.128,50,5.475z"/>
			<path d="M28.948,19.436c6.617-3.161,13.673-5.544,21.052-7.03V8.434c-7.461,2.216-14.522,5.365-21.052,9.316V19.436z"/>
			<path d="M50,18.573v-3.547c-7.338,1.072-14.391,3.023-21.052,5.745v1.452C35.673,20.213,42.723,18.963,50,18.573z"/>
			<path d="M0,5.475V0c7.691,3.803,14.771,8.665,21.052,14.396v1.784C14.582,11.746,7.517,8.128,0,5.475z"/>
			<path d="M21.052,19.436C14.434,16.274,7.379,13.891,0,12.406V8.434c7.461,2.216,14.522,5.365,21.052,9.316V19.436z"/>
			<path d="M0,18.574v-3.547c7.336,1.072,14.391,3.023,21.052,5.745v1.452C14.327,20.213,7.277,18.965,0,18.574z"/>
			<path d="M0,24.967v-3.562c0.27-0.001,10.084-0.286,21.052,2.267v0.786C11.668,23.57,3.76,24.45,0,24.967z"/>
			<path d="M50,24.967v-3.562c-0.27-0.001-10.084-0.286-21.052,2.267v0.786C38.332,23.57,46.24,24.45,50,24.967z"/>
		</g>
	</g>
</g>
</svg>
